# xmcd
#
# Track frame offsets:
#	150
#	18473
#	33102
#	48086
#	61868
#	77090
#	94446
#	110270
#	126576
#	139881
#	156304
#	174371
#	185159
#	202899
#	214722
#	231883
#	247656
#	261594
#	278706
#
# Disc length: 3939 seconds
#
# Revision: 5
# Processed by: cddbd v1.5.1PL0 Copyright (c) Steve Scherf et al.
# Submitted via: audiograbber 1.83.01
#
DISCID=0b0f6113
DTITLE=2002-11 Country Radio - 2002-11 Country Radio
DYEAR=2002
DGENRE=Country
TTITLE0=Shania Twain - Im Gonna Getcha Good
TTITLE1=Joe Nichols - Brokenheartsville
TTITLE2=Mark Wills - Nineteen Something
TTITLE3=Kevin Denney - It'll Go Away
TTITLE4=Darryl Worley - Family Tree
TTITLE5=LeeAnn Womak - Forever Everyday
TTITLE6=Sixwire - Way Too deep
TTITLE7=Michael Peterson - Lesson In Goodbye
TTITLE8=Chalee Tennison - Lonesome Road
TTITLE9=David Ball - Whenever You Come Back To Me
TTITLE10=The Great Divide - Lost In The Night
TTITLE11=Elizabeth Cook - Stupid Things
TTITLE12=Anthony Smith - John J Blanchard
TTITLE13=Lane Brady - Plenty More Love
TTITLE14=Ronnie Bowman - Rise Above
TTITLE15=Chad Simmons - I Will
TTITLE16=Rowe Jones - I Love My Son
TTITLE17=Dixie Chicks - Landslide
TTITLE18=Chris Campbell - If The Love Fits Wear It
EXTD=
EXTT0=
EXTT1=
EXTT2=
EXTT3=
EXTT4=
EXTT5=
EXTT6=
EXTT7=
EXTT8=
EXTT9=
EXTT10=
EXTT11=
EXTT12=
EXTT13=
EXTT14=
EXTT15=
EXTT16=
EXTT17=
EXTT18=
PLAYORDER=
